<svg data-v-423bf9ae="" xmlns="http://www.w3.org/2000/svg" viewBox="0 0 211.61930434475164 60" class="font"><!----><!----><!----><g data-v-423bf9ae="" id="36736d82-8114-4ee2-88a8-ca45d2950357" fill="black" transform="matrix(4.261363370821266,0,0,4.261363370821266,2.5568167304862044,-11.889203165196065)"><path d="M3.85 4.19L3.85 4.19Q3.88 4.19 3.88 4.27L3.88 4.27L3.88 4.27Q3.88 4.35 3.85 4.35L3.85 4.35L3.85 4.35Q3.37 4.35 3.15 4.44L3.15 4.44L3.15 4.44Q2.93 4.52 2.85 4.72L2.85 4.72L2.85 4.72Q2.77 4.93 2.77 5.35L2.77 5.35L2.77 13.41L2.77 13.41Q2.77 14.76 2.16 15.55L2.16 15.55L2.16 15.55Q1.55 16.35 0.38 16.35L0.38 16.35L0.38 16.35Q-0.08 16.35-0.34 16.20L-0.34 16.20L-0.34 16.20Q-0.60 16.06-0.60 15.82L-0.60 15.82L-0.60 15.82Q-0.60 15.64-0.50 15.53L-0.50 15.53L-0.50 15.53Q-0.39 15.41-0.20 15.41L-0.20 15.41L-0.20 15.41Q0.01 15.41 0.13 15.50L0.13 15.50L0.13 15.50Q0.24 15.58 0.38 15.75L0.38 15.75L0.38 15.75Q0.49 15.92 0.60 16.00L0.60 16.00L0.60 16.00Q0.71 16.09 0.91 16.09L0.91 16.09L0.91 16.09Q1.46 16.09 1.74 15.48L1.74 15.48L1.74 15.48Q2.02 14.87 2.02 13.54L2.02 13.54L2.02 5.32L2.02 5.32Q2.02 4.90 1.91 4.70L1.91 4.70L1.91 4.70Q1.81 4.51 1.51 4.43L1.51 4.43L1.51 4.43Q1.22 4.35 0.59 4.35L0.59 4.35L0.59 4.35Q0.56 4.35 0.56 4.27L0.56 4.27L0.56 4.27Q0.56 4.19 0.59 4.19L0.59 4.19L1.39 4.20L1.39 4.20Q2.03 4.23 2.38 4.23L2.38 4.23L2.38 4.23Q2.73 4.23 3.26 4.20L3.26 4.20L3.85 4.19ZM9.45 12.18L9.46 12.18L9.46 12.18Q9.51 12.18 9.54 12.23L9.54 12.23L9.54 12.23Q9.58 12.28 9.55 12.32L9.55 12.32L9.55 12.32Q8.62 13.10 7.55 13.10L7.55 13.10L7.55 13.10Q6.73 13.10 6.15 12.73L6.15 12.73L6.15 12.73Q5.56 12.35 5.26 11.74L5.26 11.74L5.26 11.74Q4.97 11.13 4.97 10.42L4.97 10.42L4.97 10.42Q4.97 9.58 5.36 8.89L5.36 8.89L5.36 8.89Q5.75 8.20 6.43 7.80L6.43 7.80L6.43 7.80Q7.11 7.41 7.94 7.41L7.94 7.41L7.94 7.41Q8.67 7.41 9.07 7.78L9.07 7.78L9.07 7.78Q9.48 8.15 9.48 8.79L9.48 8.79L9.48 8.79Q9.48 8.96 9.44 9.03L9.44 9.03L9.44 9.03Q9.41 9.10 9.31 9.10L9.31 9.10L5.84 9.11L5.84 9.11Q5.77 9.51 5.77 9.88L5.77 9.88L5.77 9.88Q5.77 11.12 6.36 11.89L6.36 11.89L6.36 11.89Q6.96 12.66 7.99 12.66L7.99 12.66L7.99 12.66Q8.82 12.66 9.45 12.18L9.45 12.18ZM7.46 7.69L7.46 7.69Q6.85 7.69 6.45 8.02L6.45 8.02L6.45 8.02Q6.05 8.34 5.88 8.96L5.88 8.96L8.64 8.89L8.64 8.89Q8.64 8.32 8.32 8.00L8.32 8.00L8.32 8.00Q7.99 7.69 7.46 7.69L7.46 7.69ZM19.33 7.53L19.33 7.53Q19.38 7.53 19.38 7.62L19.38 7.62L19.38 7.62Q19.38 7.70 19.33 7.70L19.33 7.70L19.33 7.70Q19.00 7.70 18.77 7.91L18.77 7.91L18.77 7.91Q18.55 8.12 18.33 8.67L18.33 8.67L16.58 12.92L16.58 12.92Q16.56 12.98 16.42 12.98L16.42 12.98L16.42 12.98Q16.28 12.98 16.27 12.92L16.27 12.92L14.71 9.51L13.30 12.92L13.30 12.92Q13.29 12.98 13.15 12.98L13.15 12.98L13.15 12.98Q13.01 12.98 12.99 12.92L12.99 12.92L11.07 8.69L11.07 8.69Q10.79 8.08 10.62 7.89L10.62 7.89L10.62 7.89Q10.44 7.70 10.18 7.70L10.18 7.70L10.18 7.70Q10.14 7.70 10.14 7.62L10.14 7.62L10.14 7.62Q10.14 7.53 10.18 7.53L10.18 7.53L10.18 7.53Q10.46 7.53 10.61 7.55L10.61 7.55L11.03 7.56L11.84 7.55L11.84 7.55Q12.05 7.53 12.45 7.53L12.45 7.53L12.45 7.53Q12.49 7.53 12.49 7.62L12.49 7.62L12.49 7.62Q12.49 7.70 12.45 7.70L12.45 7.70L12.45 7.70Q12.04 7.70 11.82 7.78L11.82 7.78L11.82 7.78Q11.61 7.85 11.61 8.04L11.61 8.04L11.61 8.04Q11.61 8.13 11.66 8.25L11.66 8.25L13.40 12.04L14.57 9.18L14.35 8.69L14.35 8.69Q14.07 8.08 13.89 7.89L13.89 7.89L13.89 7.89Q13.71 7.70 13.44 7.70L13.44 7.70L13.44 7.70Q13.41 7.70 13.41 7.62L13.41 7.62L13.41 7.62Q13.41 7.53 13.44 7.53L13.44 7.53L13.89 7.55L13.89 7.55Q14.03 7.56 14.31 7.56L14.31 7.56L15.19 7.55L15.19 7.55Q15.39 7.53 15.72 7.53L15.72 7.53L15.72 7.53Q15.76 7.53 15.76 7.62L15.76 7.62L15.76 7.62Q15.76 7.70 15.72 7.70L15.72 7.70L15.72 7.70Q14.87 7.70 14.87 8.04L14.87 8.04L14.87 8.04Q14.87 8.13 14.92 8.25L14.92 8.25L16.66 12.05L18.07 8.58L18.07 8.58Q18.17 8.32 18.17 8.19L18.17 8.19L18.17 8.19Q18.17 7.92 17.90 7.81L17.90 7.81L17.90 7.81Q17.63 7.70 17.01 7.70L17.01 7.70L17.01 7.70Q16.98 7.70 16.98 7.62L16.98 7.62L16.98 7.62Q16.98 7.53 17.01 7.53L17.01 7.53L17.01 7.53Q17.39 7.53 17.58 7.55L17.58 7.55L18.42 7.56L18.91 7.55L18.91 7.55Q19.04 7.53 19.33 7.53L19.33 7.53ZM24.46 12.18L24.47 12.18L24.47 12.18Q24.51 12.18 24.55 12.23L24.55 12.23L24.55 12.23Q24.58 12.28 24.56 12.32L24.56 12.32L24.56 12.32Q23.63 13.10 22.55 13.10L22.55 13.10L22.55 13.10Q21.74 13.10 21.15 12.73L21.15 12.73L21.15 12.73Q20.57 12.35 20.27 11.74L20.27 11.74L20.27 11.74Q19.98 11.13 19.98 10.42L19.98 10.42L19.98 10.42Q19.98 9.58 20.37 8.89L20.37 8.89L20.37 8.89Q20.76 8.20 21.44 7.80L21.44 7.80L21.44 7.80Q22.12 7.41 22.95 7.41L22.95 7.41L22.95 7.41Q23.67 7.41 24.08 7.78L24.08 7.78L24.08 7.78Q24.49 8.15 24.49 8.79L24.49 8.79L24.49 8.79Q24.49 8.96 24.45 9.03L24.45 9.03L24.45 9.03Q24.42 9.10 24.32 9.10L24.32 9.10L20.85 9.11L20.85 9.11Q20.78 9.51 20.78 9.88L20.78 9.88L20.78 9.88Q20.78 11.12 21.37 11.89L21.37 11.89L21.37 11.89Q21.97 12.66 23.00 12.66L23.00 12.66L23.00 12.66Q23.83 12.66 24.46 12.18L24.46 12.18ZM22.47 7.69L22.47 7.69Q21.85 7.69 21.46 8.02L21.46 8.02L21.46 8.02Q21.06 8.34 20.89 8.96L20.89 8.96L23.65 8.89L23.65 8.89Q23.65 8.32 23.32 8.00L23.32 8.00L23.32 8.00Q23.00 7.69 22.47 7.69L22.47 7.69ZM25.70 12.94L25.70 12.94Q25.66 12.94 25.66 12.85L25.66 12.85L25.66 12.85Q25.66 12.77 25.70 12.77L25.70 12.77L25.70 12.77Q26.11 12.77 26.29 12.70L26.29 12.70L26.29 12.70Q26.47 12.63 26.54 12.43L26.54 12.43L26.54 12.43Q26.61 12.22 26.61 11.80L26.61 11.80L26.61 4.54L26.61 4.54Q26.61 4.02 26.52 3.79L26.52 3.79L26.52 3.79Q26.42 3.57 26.17 3.57L26.17 3.57L26.17 3.57Q25.94 3.57 25.49 3.78L25.49 3.78L25.47 3.78L25.47 3.78Q25.41 3.78 25.39 3.71L25.39 3.71L25.39 3.71Q25.37 3.64 25.42 3.63L25.42 3.63L27.15 2.80L27.15 2.80Q27.17 2.79 27.22 2.79L27.22 2.79L27.22 2.79Q27.24 2.79 27.28 2.81L27.28 2.81L27.28 2.81Q27.31 2.84 27.31 2.88L27.31 2.88L27.31 11.80L27.31 11.80Q27.31 12.22 27.38 12.42L27.38 12.42L27.38 12.42Q27.44 12.61 27.63 12.69L27.63 12.69L27.63 12.69Q27.82 12.77 28.22 12.77L28.22 12.77L28.22 12.77Q28.27 12.77 28.27 12.85L28.27 12.85L28.27 12.85Q28.27 12.94 28.22 12.94L28.22 12.94L28.22 12.94Q27.92 12.94 27.72 12.92L27.72 12.92L26.96 12.91L26.21 12.92L26.21 12.92Q26.03 12.94 25.70 12.94L25.70 12.94ZM29.29 12.94L29.29 12.94Q29.25 12.94 29.25 12.85L29.25 12.85L29.25 12.85Q29.25 12.77 29.29 12.77L29.29 12.77L29.29 12.77Q29.69 12.77 29.88 12.70L29.88 12.70L29.88 12.70Q30.06 12.63 30.13 12.43L30.13 12.43L30.13 12.43Q30.20 12.22 30.20 11.80L30.20 11.80L30.20 4.54L30.20 4.54Q30.20 4.02 30.10 3.79L30.10 3.79L30.10 3.79Q30.00 3.57 29.75 3.57L29.75 3.57L29.75 3.57Q29.53 3.57 29.08 3.78L29.08 3.78L29.05 3.78L29.05 3.78Q28.99 3.78 28.97 3.71L28.97 3.71L28.97 3.71Q28.95 3.64 29.01 3.63L29.01 3.63L30.73 2.80L30.73 2.80Q30.76 2.79 30.80 2.79L30.80 2.79L30.80 2.79Q30.83 2.79 30.86 2.81L30.86 2.81L30.86 2.81Q30.90 2.84 30.90 2.88L30.90 2.88L30.90 11.80L30.90 11.80Q30.90 12.22 30.96 12.42L30.96 12.42L30.96 12.42Q31.02 12.61 31.21 12.69L31.21 12.69L31.21 12.69Q31.40 12.77 31.81 12.77L31.81 12.77L31.81 12.77Q31.85 12.77 31.85 12.85L31.85 12.85L31.85 12.85Q31.85 12.94 31.81 12.94L31.81 12.94L31.81 12.94Q31.50 12.94 31.30 12.92L31.30 12.92L30.55 12.91L29.79 12.92L29.79 12.92Q29.61 12.94 29.29 12.94L29.29 12.94ZM37.30 12.18L37.31 12.18L37.31 12.18Q37.35 12.18 37.39 12.23L37.39 12.23L37.39 12.23Q37.42 12.28 37.39 12.32L37.39 12.32L37.39 12.32Q36.47 13.10 35.39 13.10L35.39 13.10L35.39 13.10Q34.58 13.10 33.99 12.73L33.99 12.73L33.99 12.73Q33.40 12.35 33.11 11.74L33.11 11.74L33.11 11.74Q32.82 11.13 32.82 10.42L32.82 10.42L32.82 10.42Q32.82 9.58 33.21 8.89L33.21 8.89L33.21 8.89Q33.60 8.20 34.28 7.80L34.28 7.80L34.28 7.80Q34.96 7.41 35.78 7.41L35.78 7.41L35.78 7.41Q36.51 7.41 36.92 7.78L36.92 7.78L36.92 7.78Q37.32 8.15 37.32 8.79L37.32 8.79L37.32 8.79Q37.32 8.96 37.29 9.03L37.29 9.03L37.29 9.03Q37.25 9.10 37.16 9.10L37.16 9.10L33.68 9.11L33.68 9.11Q33.61 9.51 33.61 9.88L33.61 9.88L33.61 9.88Q33.61 11.12 34.21 11.89L34.21 11.89L34.21 11.89Q34.80 12.66 35.84 12.66L35.84 12.66L35.84 12.66Q36.67 12.66 37.30 12.18L37.30 12.18ZM35.31 7.69L35.31 7.69Q34.69 7.69 34.29 8.02L34.29 8.02L34.29 8.02Q33.89 8.34 33.73 8.96L33.73 8.96L36.48 8.89L36.48 8.89Q36.48 8.32 36.16 8.00L36.16 8.00L36.16 8.00Q35.84 7.69 35.31 7.69L35.31 7.69ZM41.73 7.41L41.73 7.41Q42.04 7.41 42.32 7.57L42.32 7.57L42.32 7.57Q42.59 7.73 42.59 7.94L42.59 7.94L42.59 7.94Q42.59 8.08 42.48 8.19L42.48 8.19L42.48 8.19Q42.38 8.30 42.18 8.30L42.18 8.30L42.18 8.30Q42.04 8.30 41.93 8.22L41.93 8.22L41.93 8.22Q41.82 8.15 41.79 8.13L41.79 8.13L41.79 8.13Q41.52 7.92 41.26 7.92L41.26 7.92L41.26 7.92Q41.06 7.92 40.85 8.09L40.85 8.09L40.85 8.09Q40.63 8.26 40.18 8.81L40.18 8.81L40.18 11.80L40.18 11.80Q40.18 12.22 40.28 12.43L40.28 12.43L40.28 12.43Q40.38 12.63 40.66 12.70L40.66 12.70L40.66 12.70Q40.95 12.77 41.58 12.77L41.58 12.77L41.58 12.77Q41.62 12.77 41.62 12.85L41.62 12.85L41.62 12.85Q41.62 12.94 41.58 12.94L41.58 12.94L41.58 12.94Q41.13 12.94 40.87 12.92L40.87 12.92L39.86 12.91L39.12 12.92L39.12 12.92Q38.93 12.94 38.61 12.94L38.61 12.94L38.61 12.94Q38.57 12.94 38.57 12.85L38.57 12.85L38.57 12.85Q38.57 12.77 38.61 12.77L38.61 12.77L38.61 12.77Q39.02 12.77 39.20 12.70L39.20 12.70L39.20 12.70Q39.38 12.63 39.45 12.43L39.45 12.43L39.45 12.43Q39.52 12.22 39.52 11.80L39.52 11.80L39.52 9.00L39.52 9.00Q39.52 8.51 39.41 8.30L39.41 8.30L39.41 8.30Q39.30 8.09 39.02 8.09L39.02 8.09L39.02 8.09Q38.79 8.09 38.23 8.30L38.23 8.30L38.21 8.30L38.21 8.30Q38.15 8.30 38.13 8.24L38.13 8.24L38.13 8.24Q38.11 8.18 38.16 8.15L38.16 8.15L39.72 7.42L39.72 7.42Q39.75 7.41 39.79 7.41L39.79 7.41L39.79 7.41Q39.90 7.41 40.04 7.72L40.04 7.72L40.04 7.72Q40.18 8.04 40.18 8.53L40.18 8.53L40.18 8.61L40.18 8.61Q40.75 7.91 41.09 7.66L41.09 7.66L41.09 7.66Q41.43 7.41 41.73 7.41L41.73 7.41ZM49.01 7.53L49.01 7.53Q49.06 7.53 49.06 7.62L49.06 7.62L49.06 7.62Q49.06 7.70 49.01 7.70L49.01 7.70L49.01 7.70Q48.68 7.70 48.44 7.91L48.44 7.91L48.44 7.91Q48.20 8.12 48.01 8.67L48.01 8.67L46.26 13.33L46.26 13.33Q45.74 14.69 45.28 15.45L45.28 15.45L45.28 15.45Q44.83 16.21 44.34 16.54L44.34 16.54L44.34 16.54Q43.85 16.87 43.20 16.87L43.20 16.87L43.20 16.87Q42.92 16.87 42.73 16.74L42.73 16.74L42.73 16.74Q42.53 16.60 42.53 16.35L42.53 16.35L42.53 16.35Q42.53 16.20 42.64 16.10L42.64 16.10L42.64 16.10Q42.76 16.00 42.91 16.00L42.91 16.00L42.91 16.00Q43.20 16.00 43.48 16.17L43.48 16.17L43.48 16.17Q43.61 16.25 43.72 16.29L43.72 16.29L43.72 16.29Q43.82 16.32 43.97 16.32L43.97 16.32L43.97 16.32Q44.32 16.32 44.63 16.02L44.63 16.02L44.63 16.02Q44.94 15.71 45.30 14.99L45.30 14.99L45.30 14.99Q45.65 14.28 46.14 12.98L46.14 12.98L44.04 8.69L44.04 8.69Q43.72 8.08 43.55 7.89L43.55 7.89L43.55 7.89Q43.39 7.70 43.12 7.70L43.12 7.70L43.12 7.70Q43.09 7.70 43.09 7.62L43.09 7.62L43.09 7.62Q43.09 7.53 43.12 7.53L43.12 7.53L43.12 7.53Q43.41 7.53 43.55 7.55L43.55 7.55L43.99 7.56L44.86 7.55L44.86 7.55Q45.05 7.53 45.40 7.53L45.40 7.53L45.40 7.53Q45.43 7.53 45.43 7.62L45.43 7.62L45.43 7.62Q45.43 7.70 45.40 7.70L45.40 7.70L45.40 7.70Q44.56 7.70 44.56 8.04L44.56 8.04L44.56 8.04Q44.56 8.13 44.62 8.25L44.62 8.25L46.52 12.14L47.71 8.72L47.71 8.72Q47.82 8.41 47.82 8.22L47.82 8.22L47.82 8.22Q47.82 7.92 47.57 7.81L47.57 7.81L47.57 7.81Q47.31 7.70 46.69 7.70L46.69 7.70L46.69 7.70Q46.66 7.70 46.66 7.62L46.66 7.62L46.66 7.62Q46.66 7.53 46.69 7.53L46.69 7.53L46.69 7.53Q47.07 7.53 47.26 7.55L47.26 7.55L48.10 7.56L48.59 7.55L48.59 7.55Q48.72 7.53 49.01 7.53L49.01 7.53Z"></path></g><!----><!----></svg>